<mxfile host="Electron" modified="2023-09-18T17:10:40.129Z" agent="Mozilla/5.0 (Windows NT 10.0; Win64; x64) AppleWebKit/537.36 (KHTML, like Gecko) draw.io/21.7.5 Chrome/114.0.5735.289 Electron/25.8.1 Safari/537.36" etag="_nSdNmm7qzPyTKdM-dV_" version="21.7.5" type="device">
  <diagram name="第 1 页" id="uInm_NL_3wzANc0Tby1-">
    <mxGraphModel dx="1050" dy="638" grid="1" gridSize="10" guides="1" tooltips="1" connect="1" arrows="1" fold="1" page="1" pageScale="1" pageWidth="827" pageHeight="1169" math="0" shadow="0">
      <root>
        <mxCell id="0" />
        <mxCell id="1" parent="0" />
        <mxCell id="zt6yA1bU-0wndThSolnr-1" value="" style="endArrow=classic;html=1;curved=1;strokeColor=#8066ff;strokeWidth=3;shadow=1;" edge="1" parent="1">
          <mxGeometry width="50" height="50" relative="1" as="geometry">
            <mxPoint x="240" y="400" as="sourcePoint" />
            <mxPoint x="600" y="192.8571428571429" as="targetPoint" />
            <Array as="points">
              <mxPoint x="550" y="350" />
              <mxPoint x="300" y="250" />
            </Array>
          </mxGeometry>
        </mxCell>
        <mxCell id="zt6yA1bU-0wndThSolnr-3" value="" style="shape=umlActor;verticalLabelPosition=bottom;verticalAlign=top;html=1;outlineConnect=0;fontColor=#ffee2e;strokeColor=#e6e600;strokeWidth=4;gradientColor=#66ff00;" vertex="1" parent="1">
          <mxGeometry x="250" y="330" width="30" height="60" as="geometry" />
        </mxCell>
        <mxCell id="zt6yA1bU-0wndThSolnr-10" value="&lt;font style=&quot;font-size: 24px;&quot; face=&quot;隶书&quot;&gt;远走高飞&lt;/font&gt;" style="text;html=1;align=center;verticalAlign=middle;resizable=0;points=[];autosize=1;strokeWidth=1;fontColor=#0661b7;" vertex="1" parent="1">
          <mxGeometry x="330" y="190" width="120" height="40" as="geometry" />
        </mxCell>
      </root>
    </mxGraphModel>
  </diagram>
</mxfile>
